<svg width="70" height="70" viewBox="0 0 70 70" fill="none" xmlns="http://www.w3.org/2000/svg">
<path id="Vector" fill-rule="evenodd" clip-rule="evenodd" d="M15.3891 6.73826C12.9116 8.47059 10.6713 10.5188 8.72648 12.8244C16.6738 12.0866 26.7706 13.2914 38.4929 19.1525C51.0107 25.4113 61.0906 25.6229 68.1058 24.2697C67.4692 22.3425 66.6677 20.4903 65.7186 18.7295C57.6882 19.5765 47.3932 18.4554 35.3952 12.4566C27.7764 8.64714 21.0605 7.07792 15.3891 6.73826ZM61.0276 12.0525C54.6859 4.96695 45.4699 0.507812 35.2123 0.507812C32.2 0.507812 29.2772 0.892437 26.4909 1.6152C30.2647 2.64489 34.2736 4.1513 38.4929 6.261C47.2771 10.6531 54.861 12.0672 61.0276 12.0525ZM69.6056 31.0345C61.1306 32.708 49.4276 32.3643 35.3952 25.3481C22.2765 18.7887 11.8351 18.8713 4.79305 20.4363C4.42956 20.517 4.07463 20.6018 3.72827 20.6901C2.8063 22.6953 2.07034 24.8038 1.54229 26.9934C2.10628 26.8427 2.68908 26.6995 3.29038 26.5658C11.8336 24.6673 23.9044 24.7498 38.4929 32.0441C51.6118 38.6034 62.0531 38.5208 69.0953 36.9559C69.3365 36.9024 69.5742 36.847 69.808 36.7898C69.8337 36.2438 69.8465 35.6943 69.8465 35.1419C69.8465 33.7522 69.7647 32.3816 69.6056 31.0345ZM68.6772 44.0988C60.2845 45.5661 48.9223 45.0029 35.3952 38.2396C22.2765 31.6802 11.8351 31.7628 4.79305 33.3278C3.22992 33.675 1.82376 34.098 0.583321 34.5447C0.579939 34.7433 0.578247 34.9424 0.578247 35.1419C0.578247 54.2698 16.0845 69.7761 35.2123 69.7761C51.2429 69.7761 64.7298 58.8852 68.6772 44.0988Z" fill="#188AEC"/>
</svg>
